<svg xmlns="http://www.w3.org/2000/svg" xmlns:xlink="http://www.w3.org/1999/xlink" viewBox="0,0,256,256" width="100px" height="100px" fill-rule="nonzero"><g fill="#ffffff" fill-rule="nonzero" stroke="none" stroke-width="1" stroke-linecap="butt" stroke-linejoin="miter" stroke-miterlimit="10" stroke-dasharray="" stroke-dashoffset="0" font-family="none" font-weight="none" font-size="none" text-anchor="none" style="mix-blend-mode: normal"><g transform="scale(5.12,5.12)"><path d="M7.125,2l21.65625,21.5l5.9375,-5.9375l-26.25,-15.15625c-0.4375,-0.25391 -0.90625,-0.39453 -1.34375,-0.40625zM5.3125,3c-0.19531,0.34766 -0.3125,0.75781 -0.3125,1.21875v41.78125c0,0.33594 0.07031,0.63672 0.1875,0.90625l22.15625,-22zM36.53125,18.59375l-6.34375,6.3125l6.34375,6.28125l7.75,-4.4375c1.10156,-0.63672 1.25781,-1.44531 1.25,-1.875c-0.01172,-0.71094 -0.46094,-1.375 -1.21875,-1.78125c-0.66016,-0.35547 -5.5625,-3.21094 -7.78125,-4.5zM28.78125,26.3125l-21.84375,21.65625c0.36328,-0.01953 0.75781,-0.09766 1.125,-0.3125c0.85547,-0.49609 18.15625,-10.5 18.15625,-10.5l8.53125,-4.90625z"></path></g></g></svg>